<svg width="621" height="578" viewBox="0 0 621 578" fill="none" xmlns="http://www.w3.org/2000/svg">
<g opacity="0.05">
<path d="M333.844 28.5586C317.45 7.02579 286.132 1.32877 257.772 14.9951C246.121 20.61 234.686 23.322 221.771 23.9883C198.613 25.1832 181.705 33.8047 171.972 47.416C162.232 61.0374 159.413 80.0246 165.204 102.481C172.579 131.081 188.756 154.804 207.638 178.51L209.551 180.913L206.58 181.69C204.634 182.2 202.938 182.28 201.444 181.941C199.927 181.598 198.763 180.857 197.848 179.963C196.961 179.097 196.311 178.09 195.795 177.227C195.231 176.283 194.873 175.605 194.426 174.985C182.378 158.272 170.9 141.396 158.66 124.941C150.094 113.425 138.612 107.143 126.912 106.232C115.221 105.322 103.118 109.758 93.251 120.05C86.3027 127.297 78.2125 128.64 70.7109 130.693C50.892 136.117 37.8573 143.84 30.4287 154.852C23.0101 165.849 20.9162 180.524 23.8887 200.47C24.4598 204.302 24.0043 207.375 22.8623 210.15C21.7505 212.852 20.0129 215.195 18.2295 217.548C7.63181 231.529 2.28838 245.937 2.01172 259.747C1.73549 273.539 6.50795 286.898 16.4258 298.833C39.4128 326.495 78.6097 337.153 107.184 324.062C123.362 316.649 140.349 312.074 158.13 310.077L158.943 313.976C145.739 318.05 133.899 324.625 122.299 331.91C110.778 339.145 99.3301 347.194 87.2861 353.897C70.1361 363.442 59.8915 379.139 55.209 398.378C52.9732 407.564 53.3802 415.927 56.2686 423.137C59.1538 430.339 64.5774 436.55 72.6504 441.342C75.9855 443.322 78.8559 445.258 80.7734 448.023C82.7468 450.87 83.5566 454.348 83.3652 459.1C82.6461 476.959 86.8954 489.831 95.3359 497.906C103.778 505.983 116.823 509.656 134.569 508.203C138.852 507.853 141.919 508.527 144.253 510.496C146.445 512.346 147.695 515.137 148.946 518.05C155.116 532.415 162.207 541.754 171.567 547.254C180.939 552.76 192.892 554.599 209.168 553.306C216.98 552.685 221.407 556.41 226.015 559.99C257.372 584.357 307.175 580.44 334.284 551.446C339.896 545.444 344.06 539.289 346.085 532.622C348.096 526 348.041 518.727 344.975 510.372C338.029 491.451 341.374 471.636 342.797 452.648L346.646 452.049C361.348 488.431 381.399 520.317 411.698 545.07C420.728 552.447 430.702 558.094 441.665 561.772C456.998 566.917 470.308 566.399 480.574 560.95C490.82 555.512 498.403 544.966 501.907 529.283C503.32 522.961 505.594 518.921 509.172 516.321C512.642 513.8 517.076 512.85 522.17 512.022C538.243 509.411 548.784 505.192 556.029 497.987C563.277 490.78 567.509 480.304 570.305 464.511C571.131 459.843 573.091 456.082 575.971 452.688C582.436 445.069 585.847 437.136 586.547 429.092C587.248 421.04 585.248 412.711 580.616 404.283C570.745 386.324 556.019 374.698 534.537 374.524C502.798 374.268 472.18 368.606 443.161 355.221C440.839 354.149 438.743 352.561 436.896 350.009L432.781 344.323L439.274 346.985C475.935 362.017 513.608 364.291 551.32 354.661C567.343 350.57 582.031 345.058 592.618 335.752C603.099 326.539 609.719 313.465 609.363 293.807C609.326 291.729 610.04 289.755 610.806 288.051C611.193 287.188 611.626 286.326 612.021 285.528C612.426 284.713 612.796 283.952 613.105 283.212C620.039 266.616 620.738 252.631 615.821 241.385C610.905 230.14 600.179 221.186 583.301 215.07C578.991 213.509 574.647 212.198 570.237 210.744L569.168 210.392L568.914 209.294C568.673 208.249 568.383 207.476 568.073 206.408C567.8 205.465 567.52 204.297 567.682 203.07C570.141 184.437 565.103 169.253 555.378 160.21C545.699 151.211 531.007 147.95 513.353 153.873C472.315 167.641 442.484 198.142 413.523 232.876C420.605 234.756 426.992 233.619 433.49 232.062C440.693 230.335 448.336 227.968 456.525 229.66L461.578 230.704L457.143 233.338C450.123 237.507 442.436 239.494 435.067 241.9C429.245 243.802 423.451 246.004 417.796 249.748H459.823L460.183 253.715C434.233 258.452 411.229 263.023 390.121 280.368C394.969 280.635 399.755 280.683 404.513 280.7C410.811 280.723 417.09 280.689 423.278 281.048C435.701 281.769 447.957 284.079 460.112 291.7L464.7 294.577L459.344 295.373C449.892 296.777 440.432 297.073 431.052 297.154C421.631 297.236 412.349 297.102 403.046 297.622C385.57 298.599 368.316 301.876 351.252 313.141C377.022 323.319 398.639 334.423 416.303 357.626L413.675 360.547C391.214 346.93 372.92 335.276 350.918 334.065C350.433 335.391 350.323 336.443 350.405 337.306C350.511 338.413 350.95 339.405 351.664 340.436C352.408 341.51 353.351 342.495 354.45 343.7C355.5 344.852 356.663 346.177 357.546 347.741L358.697 349.781L356.501 350.599C353.71 351.637 351.168 351.794 348.822 351.295C346.505 350.802 344.505 349.695 342.738 348.402C340.988 347.121 339.37 345.581 337.881 344.181C336.351 342.742 334.951 341.446 333.498 340.441C327.823 336.518 323.645 335.542 320.285 336.383C316.872 337.237 313.664 340.117 310.313 345.455C301.674 359.218 297.657 374.709 292.731 392.992L288.812 392.692C286.522 372.035 288.061 353.982 294.468 333.527C281.616 337.339 272.105 344.449 263.481 352.859C258.768 357.457 254.355 362.405 249.775 367.435C245.215 372.443 240.508 377.512 235.288 382.232L232.091 380.001C241.035 357.796 256.548 343.681 273.388 327.843C255.73 324.142 242.935 332.355 228.378 337.7L221.948 340.062L226.098 334.611C232.362 326.384 242.149 318.167 252.64 313.808C262.195 309.837 272.105 306.558 283.202 302.559C273.217 282.357 254.733 273.627 235.661 261.677L230.021 258.143L236.675 257.982C243.655 257.814 249.211 260.654 254.284 262.947C258.882 265.025 263.208 266.735 268.466 266.351C266.907 257.775 261.92 252.157 255.411 246.785C251.825 243.826 248.059 241.155 244.002 237.96C240.034 234.834 236.014 231.372 232.386 227.153L234.816 224.07C256.305 235.11 270.287 248.011 282.196 264.229C286.96 257.663 287.831 251.482 287.149 245.313C286.767 241.849 285.89 238.371 284.875 234.77C283.873 231.216 282.717 227.481 281.876 223.727L280.896 219.347L284.808 221.546C289.605 224.242 291.547 228.634 293.477 232.206C295.117 235.243 296.857 238.017 300.285 240.05C305.623 212.504 293.118 190.086 283.038 166.176L286.141 163.846C291.177 167.934 294.586 171.081 297.6 175.845C300.572 180.542 303.105 186.726 306.627 196.777C310.351 207.406 313.016 218.488 316.934 232.804C326.476 209.284 325.165 188.214 323.365 164.078L327.15 163.039C333.898 176.61 335.317 190.296 335.952 203.522C336.559 216.161 336.464 228.197 339.325 239.814C350.38 236.509 355.275 228.131 360.321 219.885C388.624 173.631 398.986 123.426 390.939 69.8311C389.419 59.7037 385.86 52.4294 380.396 47.6357C374.932 42.8434 367.305 40.3028 357.189 40.1611C352.122 40.0902 347.879 39.3622 344.063 37.5029C340.241 35.6403 337.016 32.7251 333.844 28.5586Z" fill="#443B2B" stroke="#443B2B" stroke-width="4"/>
<path d="M490.351 61.4893C483.478 64.902 481.622 70.5911 478.511 76.2471C448.019 131.676 416.405 186.574 371.922 232.966C362.871 242.405 353.005 250.836 343.077 259.052C333.125 267.289 323.141 275.287 313.714 283.946C312.011 285.51 309.863 287.148 308.034 288.671C306.123 290.263 304.42 291.835 303.203 293.51C302.005 295.159 301.347 296.812 301.376 298.6C301.405 300.396 302.131 302.612 304.24 305.37C307.858 310.101 311.901 311.63 316.124 311.481C320.516 311.327 325.292 309.345 330.15 306.579C349.023 295.837 363.315 279.997 377.283 263.381C409.739 224.771 435.352 181.744 459.028 135.833C471.414 111.575 482.756 88.3387 490.351 61.4893Z" fill="#443B2B" stroke="#443B2B" stroke-width="4"/>
<path d="M476.52 22.0791C473.098 20.8159 470.231 20.9497 467.846 22.001C465.422 23.0693 463.264 25.1883 461.507 28.3008C459.719 31.4667 459.441 34.2148 460.214 36.7637C460.992 39.33 462.916 41.9456 466.064 44.6709C471.154 46.5672 475.155 46.7518 478.13 45.6201C481.085 44.4958 483.448 41.9083 484.895 37.3213C486.058 33.6323 485.691 30.5375 484.293 28.0664C482.875 25.5599 480.261 23.4603 476.52 22.0791Z" fill="#443B2B" stroke="#443B2B" stroke-width="4"/>
<path d="M512.094 78.5332C508.319 76.1448 502.329 75.2685 494.849 77.0918C491.142 83.0653 490.98 87.4203 492.428 90.6592C493.993 94.1628 497.702 96.9923 502.814 99.1826H502.815C506.576 100.794 509.502 100.357 511.677 98.8604C513.948 97.2973 515.731 94.3458 516.583 90.3369C517.721 84.9785 515.858 80.9156 512.094 78.5332Z" fill="#443B2B" stroke="#443B2B" stroke-width="4"/>
<path d="M495.822 107.91C493.458 107.627 490.869 108.294 488.152 110.177C484.433 112.755 482.447 115.513 481.954 118.443C481.471 121.322 482.35 124.837 485.38 129.158C489.63 132.252 493.148 133.403 496.045 133.104C498.92 132.808 501.681 131.028 504.279 127.124C506.071 124.432 506.742 121.811 506.51 119.35C506.277 116.88 505.114 114.37 502.886 111.948C500.6 109.465 498.192 108.194 495.822 107.91Z" fill="#443B2B" stroke="#443B2B" stroke-width="4"/>
<path d="M457.87 51.8037C452.096 50.6081 447.235 52.4003 444.89 57.0645C441.719 63.3697 441.916 67.3863 443.754 69.9404C445.667 72.5981 449.887 74.5009 456.838 75.2197C460.662 73.5691 463.407 71.6988 465.055 69.5C466.7 67.3049 467.39 64.604 466.68 60.9668C465.749 56.1978 462.78 52.8205 457.87 51.8037Z" fill="#443B2B" stroke="#443B2B" stroke-width="4"/>
<path d="M507.045 2.05078C503.737 1.82995 500.993 2.33096 498.918 3.55273C496.895 4.74376 495.305 6.73662 494.464 9.9375C493.303 14.3571 493.753 17.6093 495.38 20.0215C497.001 22.4253 500.046 24.3778 504.94 25.6602C510.022 24.9345 513.181 23.263 514.981 21.0137C516.811 18.7278 517.542 15.4698 516.933 10.9795C516.541 8.09073 515.445 6.00337 513.866 4.58496C512.279 3.15886 510.027 2.24991 507.045 2.05078Z" fill="#443B2B" stroke="#443B2B" stroke-width="4"/>
<path d="M521.606 44.9082C517.21 43.2707 513.816 43.0981 511.257 44.0068C508.698 44.9152 506.576 47.0467 505.049 50.873C503.868 53.8314 503.817 56.5013 504.615 58.7988C505.368 60.964 506.934 62.9654 509.358 64.627L509.855 64.9551C512.267 66.4893 514.608 67.0424 516.766 66.792C518.924 66.5414 521.103 65.4636 523.148 63.377C526.404 60.0558 527.626 57.0409 527.39 54.2393C527.154 51.4475 525.429 48.3444 521.606 44.9082Z" fill="#443B2B" stroke="#443B2B" stroke-width="4"/>
<path d="M441.667 84.0254C439.35 82.6835 437.001 82.2672 434.781 82.6357C432.552 83.006 430.314 84.1926 428.286 86.2881C426.473 88.1621 425.4 90.0923 425.073 91.9746C424.754 93.812 425.109 95.7954 426.501 97.915C428.749 101.337 431.119 103.381 433.685 104.02C436.122 104.626 439.238 104.082 443.344 101.223C445.777 97.3019 446.972 93.9624 446.84 91.2217C446.714 88.605 445.356 86.1613 441.667 84.0254Z" fill="#443B2B" stroke="#443B2B" stroke-width="4"/>
</g>
</svg>
